# xmcd
#
# Track frame offsets:
#	182
#	15757
#	31867
#	46945
#	62290
#	76530
#	90865
#	103355
#	118162
#	131917
#	147187
#	162512
#	177490
#	192730
#	207060
#	222050
#	236252
#	250902
#
# Disc length: 3546 seconds
#
# Revision: 0
# Processed by: cddbd v1.4PL0 Copyright (c) Steve Scherf et al.
# Submitted via: EasyCDDAExtractor 4.6.0.1
#
DISCID=e90dd812
DTITLE=Louis Armstrong - Essential Collection. Disc 2
DYEAR=1900
DGENRE=
TTITLE0=Knockin a Jug
TTITLE1=I Can't Give You Anything But Love
TTITLE2=How Do They Do It That Way
TTITLE3=Ain't Misbehavin'
TTITLE4=What Did I Do To Be So Blank And Blue
TTITLE5=That Rhythm Man
TTITLE6=I Ain't Got Nobody And Nobody Cares For Me
TTITLE7=Dallas Blues
TTITLE8=St Louis Blues
TTITLE9=Rockin' Chair
TTITLE10=Bessie Couldn't Help It
TTITLE11=Dear Old Southland
TTITLE12=My Sweet
TTITLE13=I Can't Believe That You're In Love With Me
TTITLE14=Dinah
TTITLE15=I'm A Ding Dong Daddy
TTITLE16=I'm In The Market For Love
TTITLE17=I'm Confessin
EXTD=
EXTT0=
EXTT1=
EXTT2=
EXTT3=
EXTT4=
EXTT5=
EXTT6=
EXTT7=
EXTT8=
EXTT9=
EXTT10=
EXTT11=
EXTT12=
EXTT13=
EXTT14=
EXTT15=
EXTT16=
EXTT17=
PLAYORDER=
